<?xml version="1.0" encoding="UTF-8"?>
<svg width="71.08" height="39.752" fill="none" version="1.1" viewBox="0 0 71.08 39.752" xmlns="http://www.w3.org/2000/svg">
 <defs>
  <filter id="filter9" x="-.046035" y="-.084775" width="1.0921" height="1.1696" color-interpolation-filters="sRGB">
   <feGaussianBlur stdDeviation="1.2981895"/>
  </filter>
 </defs>
 <g transform="translate(-8.7409 41.489)" fill="#d7d7d7" fill-opacity=".43617" filter="url(#filter9)" style="mix-blend-mode:normal">
  <path d="m20.532-8.9973q-0.352 0-0.448-0.32l-2.464-8.832q-0.064-0.128-0.16-0.128h-1.088q-0.16 0-0.16 0.16v8.736q0 0.16-0.128 0.288-0.096 0.096-0.256 0.096h-3.744q-0.16 0-0.288-0.096-0.096-0.128-0.096-0.288v-21.664q0-0.16 0.096-0.256 0.128-0.128 0.288-0.128h6.464q1.76 0 3.136 0.864t2.112 2.4q0.768 1.536 0.768 3.488 0 1.888-0.736 3.328-0.704 1.44-1.984 2.272-0.064 0.032-0.096 0.096-0.032 0.032 0 0.096l2.944 9.44 0.032 0.128q0 0.32-0.352 0.32zm-4.16-18.528q-0.16 0-0.16 0.16v5.44q0 0.16 0.16 0.16h1.44q0.992 0 1.6-0.768 0.64-0.768 0.64-2.08 0-1.376-0.64-2.144-0.608-0.768-1.6-0.768zm16.064 18.784q-2.88 0-4.48-1.408-1.6-1.44-1.6-3.968v-6.208q0-2.432 1.6-3.904 1.632-1.472 4.48-1.472t4.448 1.472q1.632 1.472 1.632 3.904v6.208q0 2.528-1.6 3.968-1.6 1.408-4.48 1.408zm0-3.872q0.704 0 1.12-0.512 0.448-0.512 0.448-1.344v-5.536q0-0.8-0.448-1.312-0.416-0.512-1.12-0.512t-1.152 0.512q-0.416 0.512-0.416 1.312v5.536q0 0.832 0.416 1.344 0.448 0.512 1.152 0.512zm15.584-18.4q0-0.16 0.096-0.256 0.128-0.128 0.288-0.128h3.744q0.16 0 0.256 0.128 0.128 0.096 0.128 0.256v21.632q0 0.16-0.128 0.288-0.096 0.096-0.256 0.096h-3.744q-0.16 0-0.288-0.096-0.096-0.128-0.096-0.288v-0.576q0-0.096-0.064-0.128-0.064-0.032-0.128 0.064-1.056 1.28-2.976 1.28-2.208 0-3.2-1.344-0.96-1.344-1.056-4-0.064-0.64-0.064-3.136v-3.008q0.064-2.752 1.12-4.096 1.056-1.376 3.264-1.376 1.856 0 2.912 1.344 0.064 0.096 0.128 0.096 0.064-0.032 0.064-0.128zm-1.504 18.432q0.64 0 1.024-0.448 0.416-0.48 0.48-1.28v-5.248l-0.032-0.576q-0.064-0.8-0.448-1.248-0.352-0.48-0.992-0.48t-1.024 0.448-0.448 1.248q-0.064 0.928-0.064 2.912t0.032 2.944q0.064 0.8 0.416 1.28 0.384 0.448 1.056 0.448zm8.448 9.952q-0.192 0-0.192-0.384v-2.944q0-0.384 0.16-0.384h0.16q1.6 0 2.304-0.512t0.832-2.048l-0.032-0.192-4.032-15.936v-0.128q0-0.288 0.352-0.288h4.032q0.384 0 0.416 0.352l1.472 9.504q0.032 0.128 0.096 0.128t0.096-0.128l1.408-9.504q0.032-0.352 0.416-0.352l4.032 0.032q0.448 0 0.352 0.416l-4.224 16.608q-0.64 2.336-1.376 3.488-0.704 1.184-2.112 1.728-1.376 0.544-3.968 0.544zm18.496-6.144q-2.72 0-4.352-1.28-1.6-1.312-1.6-3.488v-0.224q0-0.16 0.096-0.256 0.128-0.128 0.288-0.128h3.52q0.16 0 0.256 0.064 0.128 0.064 0.128 0.16v0.256q0 0.672 0.48 1.12 0.48 0.416 1.184 0.416 0.64 0 0.992-0.352 0.384-0.384 0.384-0.96 0-0.704-0.608-1.088-0.608-0.416-1.376-0.672-0.736-0.288-1.024-0.384-1.76-0.64-2.976-1.76-1.184-1.152-1.184-3.296 0-2.336 1.536-3.68t4.096-1.344q2.656 0 4.192 1.408 1.568 1.408 1.568 3.808 0 0.16-0.128 0.288-0.096 0.096-0.256 0.096h-3.424q-0.16 0-0.288-0.096-0.096-0.096-0.096-0.224v-0.32q0-0.64-0.416-1.024-0.384-0.416-1.024-0.416-0.672 0-1.056 0.448-0.384 0.416-0.384 0.992 0 0.768 0.64 1.216 0.672 0.416 2.016 0.928 1.376 0.512 2.336 1.056 0.992 0.512 1.696 1.504 0.704 0.96 0.704 2.432 0 2.208-1.632 3.52-1.6 1.28-4.288 1.28z" stroke-width=".535" aria-label="Rodys"/>
  <path d="m30.716-39.381q0.08562 0 0.13699 0.06849 0.06849 0.05137 0.06849 0.13699v1.661q0 0.08562-0.06849 0.15411-0.05137 0.05137-0.13699 0.05137h-2.1405q-0.08562 0-0.08562 0.08562v9.6235q0 0.08562-0.06849 0.15411-0.05137 0.05137-0.13699 0.05137h-2.0035q-0.08562 0-0.15411-0.05137-0.05137-0.06849-0.05137-0.15411v-9.6235q0-0.08562-0.08562-0.08562h-2.0548q-0.08562 0-0.15411-0.05137-0.05137-0.06849-0.05137-0.15411v-1.661q0-0.08562 0.05137-0.13699 0.06849-0.06849 0.15411-0.06849zm5.3768 3.048q1.1473 0 1.7295 0.77057 0.58221 0.77057 0.58221 2.1576v5.8049q0 0.08562-0.06849 0.15411-0.05137 0.05137-0.13699 0.05137h-2.0035q-0.08562 0-0.15411-0.05137-0.05137-0.06849-0.05137-0.15411v-5.6166q0-0.49659-0.20548-0.77057-0.18836-0.27398-0.56508-0.27398-0.39384 0-0.61645 0.2911-0.20548 0.27398-0.20548 0.78769v5.5823q0 0.08562-0.06849 0.15411-0.05137 0.05137-0.13699 0.05137h-2.0035q-0.08562 0-0.15411-0.05137-0.05137-0.06849-0.05137-0.15411v-11.576q0-0.08562 0.05137-0.13699 0.06849-0.06849 0.15411-0.06849h2.0035q0.08562 0 0.13699 0.06849 0.06849 0.05137 0.06849 0.13699v3.5275q0 0.05137 0.03425 0.05137t0.11986-0.08562q0.54796-0.6507 1.5411-0.6507zm9.8975 5.12q0 0.08562-0.06849 0.15411-0.05137 0.05137-0.13699 0.05137h-3.7672q-0.08562 0-0.08562 0.08562v0.61645q0 0.42809 0.22261 0.7192 0.23973 0.27398 0.59933 0.27398 0.30823 0 0.51371-0.20548 0.22261-0.22261 0.2911-0.54796 0.05137-0.22261 0.23973-0.18836l1.9521 0.20548q0.20548 0.03425 0.18836 0.22261-0.10274 1.2158-0.92468 1.9007-0.80481 0.66782-2.2603 0.66782-1.524 0-2.3802-0.75344-0.85618-0.77057-0.85618-2.1062v-3.3391q0-1.3014 0.85618-2.0891 0.87331-0.78769 2.3802-0.78769 1.5069 0 2.3631 0.78769 0.87331 0.78769 0.87331 2.0891zm-3.2364-3.048q-0.3596 0-0.59933 0.27398-0.22261 0.27398-0.22261 0.70207v0.59933q0 0.08562 0.08562 0.08562h1.4726q0.08562 0 0.08562-0.08562v-0.59933q0-0.42809-0.23973-0.70207-0.22261-0.27398-0.58221-0.27398z" stroke-width=".28629" aria-label="The "/>
 </g>
 <path d="m10.642 31.708q-0.352 0-0.448-0.32l-2.464-8.832q-0.064-0.128-0.16-0.128h-1.088q-0.16 0-0.16 0.16v8.736q0 0.16-0.128 0.288-0.096 0.096-0.256 0.096h-3.744q-0.16 0-0.288-0.096-0.096-0.128-0.096-0.288v-21.664q0-0.16 0.096-0.256 0.128-0.128 0.288-0.128h6.464q1.76 0 3.136 0.864t2.112 2.4q0.768 1.536 0.768 3.488 0 1.888-0.736 3.328-0.704 1.44-1.984 2.272-0.064 0.032-0.096 0.096-0.032 0.032 0 0.096l2.944 9.44 0.032 0.128q0 0.32-0.352 0.32zm-4.16-18.528q-0.16 0-0.16 0.16v5.44q0 0.16 0.16 0.16h1.44q0.992 0 1.6-0.768 0.64-0.768 0.64-2.08 0-1.376-0.64-2.144-0.608-0.768-1.6-0.768zm16.064 18.784q-2.88 0-4.48-1.408-1.6-1.44-1.6-3.968v-6.208q0-2.432 1.6-3.904 1.632-1.472 4.48-1.472t4.448 1.472q1.632 1.472 1.632 3.904v6.208q0 2.528-1.6 3.968-1.6 1.408-4.48 1.408zm0-3.872q0.704 0 1.12-0.512 0.448-0.512 0.448-1.344v-5.536q0-0.8-0.448-1.312-0.416-0.512-1.12-0.512t-1.152 0.512q-0.416 0.512-0.416 1.312v5.536q0 0.832 0.416 1.344 0.448 0.512 1.152 0.512zm15.584-18.4q0-0.16 0.096-0.256 0.128-0.128 0.288-0.128h3.744q0.16 0 0.256 0.128 0.128 0.096 0.128 0.256v21.632q0 0.16-0.128 0.288-0.096 0.096-0.256 0.096h-3.744q-0.16 0-0.288-0.096-0.096-0.128-0.096-0.288v-0.576q0-0.096-0.064-0.128t-0.128 0.064q-1.056 1.28-2.976 1.28-2.208 0-3.2-1.344-0.96-1.344-1.056-4-0.064-0.64-0.064-3.136v-3.008q0.064-2.752 1.12-4.096 1.056-1.376 3.264-1.376 1.856 0 2.912 1.344 0.064 0.096 0.128 0.096 0.064-0.032 0.064-0.128zm-1.504 18.432q0.64 0 1.024-0.448 0.416-0.48 0.48-1.28v-5.248l-0.032-0.576q-0.064-0.8-0.448-1.248-0.352-0.48-0.992-0.48t-1.024 0.448-0.448 1.248q-0.064 0.928-0.064 2.912t0.032 2.944q0.064 0.8 0.416 1.28 0.384 0.448 1.056 0.448zm8.448 9.952q-0.192 0-0.192-0.384v-2.944q0-0.384 0.16-0.384h0.16q1.6 0 2.304-0.512t0.832-2.048l-0.032-0.192-4.032-15.936v-0.128q0-0.288 0.352-0.288h4.032q0.384 0 0.416 0.352l1.472 9.504q0.032 0.128 0.096 0.128t0.096-0.128l1.408-9.504q0.032-0.352 0.416-0.352l4.032 0.032q0.448 0 0.352 0.416l-4.224 16.608q-0.64 2.336-1.376 3.488-0.704 1.184-2.112 1.728-1.376 0.544-3.968 0.544zm18.496-6.144q-2.72 0-4.352-1.28-1.6-1.312-1.6-3.488v-0.224q0-0.16 0.096-0.256 0.128-0.128 0.288-0.128h3.52q0.16 0 0.256 0.064 0.128 0.064 0.128 0.16v0.256q0 0.672 0.48 1.12 0.48 0.416 1.184 0.416 0.64 0 0.992-0.352 0.384-0.384 0.384-0.96 0-0.704-0.608-1.088-0.608-0.416-1.376-0.672-0.736-0.288-1.024-0.384-1.76-0.64-2.976-1.76-1.184-1.152-1.184-3.296 0-2.336 1.536-3.68t4.096-1.344q2.656 0 4.192 1.408 1.568 1.408 1.568 3.808 0 0.16-0.128 0.288-0.096 0.096-0.256 0.096h-3.424q-0.16 0-0.288-0.096-0.096-0.096-0.096-0.224v-0.32q0-0.64-0.416-1.024-0.384-0.416-1.024-0.416-0.672 0-1.056 0.448-0.384 0.416-0.384 0.992 0 0.768 0.64 1.216 0.672 0.416 2.016 0.928 1.376 0.512 2.336 1.056 0.992 0.512 1.696 1.504 0.704 0.96 0.704 2.432 0 2.208-1.632 3.52-1.6 1.28-4.288 1.28z" fill="#bfc8f0" stroke-width=".535" aria-label="Rodys"/>
 <path d="m20.826 1.3238q0.08562 0 0.13699 0.068495 0.06849 0.051371 0.06849 0.13699v1.661q0 0.085619-0.06849 0.15411-0.05137 0.051371-0.13699 0.051371h-2.1405q-0.08562 0-0.08562 0.085618v9.6235q0 0.08562-0.06849 0.15411-0.05137 0.05137-0.13699 0.05137h-2.0035q-0.08562 0-0.15411-0.05137-0.05137-0.0685-0.05137-0.15411v-9.6235q0-0.085618-0.08562-0.085618h-2.0548q-0.08562 0-0.15411-0.051371-0.051374-0.068495-0.051374-0.15411v-1.661q0-0.085619 0.05137-0.13699 0.0685-0.068495 0.15411-0.068495zm5.3768 3.048q1.1473 0 1.7295 0.77057 0.58221 0.77057 0.58221 2.1576v5.8049q0 0.08562-0.0685 0.15411-0.05137 0.05137-0.13699 0.05137h-2.0035q-0.08562 0-0.15411-0.05137-0.05137-0.0685-0.05137-0.15411v-5.6166q0-0.49659-0.20548-0.77057-0.18836-0.27398-0.56508-0.27398-0.39384 0-0.61645 0.2911-0.20548 0.27398-0.20548 0.78769v5.5823q0 0.08562-0.0685 0.15411-0.05137 0.05137-0.13699 0.05137h-2.0035q-0.08562 0-0.15411-0.05137-0.05137-0.0685-0.05137-0.15411v-11.576q0-0.085619 0.05137-0.13699 0.06849-0.068495 0.15411-0.068495h2.0035q0.08562 0 0.13699 0.068495 0.0685 0.051371 0.0685 0.13699v3.5275q0 0.051371 0.03425 0.051371t0.11987-0.085618q0.54796-0.6507 1.5411-0.6507zm9.8975 5.12q0 0.085618-0.06849 0.15411-0.05137 0.051371-0.13699 0.051371h-3.7672q-0.08562 0-0.08562 0.085618v0.61645q0 0.42809 0.22261 0.7192 0.23973 0.27398 0.59933 0.27398 0.30823 0 0.51371-0.20548 0.22261-0.22261 0.2911-0.54796 0.05137-0.22261 0.23973-0.18836l1.9521 0.20548q0.20548 0.03425 0.18836 0.22261-0.10274 1.2158-0.92468 1.9007-0.80481 0.66782-2.2603 0.66782-1.524 0-2.3802-0.75344-0.85618-0.77057-0.85618-2.1062v-3.3391q0-1.3014 0.85618-2.0891 0.87331-0.78769 2.3802-0.78769 1.5069 0 2.3631 0.78769 0.87331 0.78769 0.87331 2.0891zm-3.2364-3.048q-0.3596 0-0.59933 0.27398-0.22261 0.27398-0.22261 0.70207v0.59933q0 0.085619 0.08562 0.085619h1.4726q0.08562 0 0.08562-0.085619v-0.59933q0-0.42809-0.23973-0.70207-0.22261-0.27398-0.5822-0.27398z" fill="#bfc8f0" stroke-width=".28629" aria-label="The "/>
</svg>
